<svg xmlns="http://www.w3.org/2000/svg" viewBox="0 0 256 256" width="256" height="256">
  <g transform="translate(128,128) scale(0.975238) translate(-116.500,-113.000)">
    <g transform="translate(0.000000,223.000000) scale(0.100000,-0.100000)" fill="#FF0000" stroke="none">
      <path d="M1150 2170 c0 -12 -7 -34 -15 -49 -20 -41 -104 -111 -130 -111 -54 0
-207 -55 -314 -113 -181 -98 -316 -230 -435 -425 -48 -79 -88 -102 -183 -103
-57 0 -65 -2 -49 -12 68 -43 83 -56 102 -85 20 -29 22 -48 27 -234 5 -221 10
-250 73 -410 43 -109 96 -196 178 -293 94 -112 112 -176 80 -285 -6 -24 -5
-23 30 10 34 32 42 35 109 38 64 4 83 0 163 -31 112 -44 258 -67 426 -67 110
0 138 4 227 30 55 17 136 44 178 61 103 41 171 38 239 -10 25 -18 48 -30 51
-27 2 2 -3 18 -11 35 -22 41 -20 117 4 170 11 24 42 69 69 100 75 88 139 202
183 329 l41 117 4 225 c4 218 5 226 29 262 13 21 43 50 66 65 l42 28 -70 6
c-102 8 -132 30 -219 163 -111 171 -240 282 -437 376 -46 22 -123 49 -173 61
-49 12 -107 25 -127 30 -20 5 -51 21 -68 36 -32 26 -70 91 -70 118 0 8 -4 15
-10 15 -5 0 -10 -9 -10 -20z m255 -335 c195 -57 333 -149 457 -304 144 -180
202 -379 178 -607 -14 -131 -35 -197 -103 -329 -128 -247 -408 -425 -707 -449
-348 -28 -726 204 -853 524 -69 175 -85 347 -48 526 35 168 150 354 293 474
64 53 214 134 303 164 134 44 334 44 480 1z M1250 1638 l0 -83 84 -27 c150
-47 256 -132 331 -264 54 -95 70 -171 63 -306 -4 -77 -9 -96 -45 -170 -60
-120 -122 -191 -218 -249 -61 -37 -94 -50 -137 -55 l-58 -7 0 67 c0 55 3 68
18 72 128 42 200 103 257 217 46 92 53 158 31 261 -20 87 -74 177 -137 227
-64 51 -164 88 -236 89 -173 0 -299 -68 -383 -209 -82 -138 -71 -308 29 -440
36 -48 130 -115 190 -137 l51 -18 0 -68 0 -68 -29 0 c-16 0 -71 21 -122 47
-162 80 -269 214 -304 378 -20 94 -19 114 8 226 29 120 79 211 152 278 63 56
221 141 266 141 l29 0 0 85 c0 97 3 94 -91 74 -81 -18 -187 -71 -271 -138
-196 -155 -300 -398 -270 -633 21 -172 86 -305 203 -420 92 -89 175 -142 272
-175 76 -25 94 -27 257 -28 l175 0 97 44 c164 73 282 177 350 308 42 80 85
212 94 287 8 68 -20 241 -54 324 -33 83 -108 197 -161 245 -91 82 -260 177
-349 196 -95 20 -92 22 -92 -71z m36 -416 c44 -23 82 -60 113 -112 52 -86 4
-262 -83 -307 -180 -94 -379 12 -381 202 0 103 63 194 161 231 51 19 139 12
190 -14z"/>
    </g>
  </g>
</svg>
